<svg width="140" height="140" viewBox="0 0 140 140" fill="none" xmlns="http://www.w3.org/2000/svg">
<g clip-path="url(#clip0_1_30)">
<path d="M107.917 0H32.0833C14.3642 0 0 14.3642 0 32.0833V107.917C0 125.636 14.3642 140 32.0833 140H107.917C125.636 140 140 125.636 140 107.917V32.0833C140 14.3642 125.636 0 107.917 0Z" fill="#4F46E5"/>
<path d="M42.2917 34.2708C42.2917 29.841 38.7006 26.25 34.2708 26.25C29.841 26.25 26.25 29.841 26.25 34.2708V102.812C26.25 107.242 29.841 110.833 34.2708 110.833C38.7006 110.833 42.2917 107.242 42.2917 102.812V34.2708Z" fill="white"/>
<path d="M82.3958 26.25H34.2708C29.841 26.25 26.25 29.841 26.25 34.2708C26.25 38.7006 29.841 42.2917 34.2708 42.2917H82.3958C86.8256 42.2917 90.4167 38.7006 90.4167 34.2708C90.4167 29.841 86.8256 26.25 82.3958 26.25Z" fill="white"/>
<path d="M61.9792 59.7917H34.2708C29.841 59.7917 26.25 63.3827 26.25 67.8125C26.25 72.2423 29.841 75.8333 34.2708 75.8333H61.9792C66.409 75.8333 70 72.2423 70 67.8125C70 63.3827 66.409 59.7917 61.9792 59.7917Z" fill="white"/>
<path d="M75.8333 113.75C75.8333 90.4167 84.5833 67.0833 96.25 49.5833C102.083 39.375 107.917 32.0833 115.208 24.7917" stroke="#10B981" stroke-width="8.75" stroke-linecap="round"/>
<path d="M115.208 33.5417C120.041 33.5417 123.958 29.6242 123.958 24.7917C123.958 19.9592 120.041 16.0417 115.208 16.0417C110.376 16.0417 106.458 19.9592 106.458 24.7917C106.458 29.6242 110.376 33.5417 115.208 33.5417Z" fill="#10B981"/>
</g>
<defs>
<clipPath id="clip0_1_30">
<rect width="140" height="140" fill="white"/>
</clipPath>
</defs>
</svg>
