<svg width="617" height="140" viewBox="0 0 617 140" fill="none" xmlns="http://www.w3.org/2000/svg">
<g clip-path="url(#clip0_1_31)">
<path d="M107.917 0H32.0833C14.3642 0 0 14.3642 0 32.0833V107.917C0 125.636 14.3642 140 32.0833 140H107.917C125.636 140 140 125.636 140 107.917V32.0833C140 14.3642 125.636 0 107.917 0Z" fill="#4F46E5"/>
<path d="M42.2917 34.2708C42.2917 29.841 38.7006 26.25 34.2708 26.25C29.841 26.25 26.25 29.841 26.25 34.2708V102.812C26.25 107.242 29.841 110.833 34.2708 110.833C38.7006 110.833 42.2917 107.242 42.2917 102.812V34.2708Z" fill="white"/>
<path d="M82.3958 26.25H34.2708C29.841 26.25 26.25 29.841 26.25 34.2708C26.25 38.7006 29.841 42.2917 34.2708 42.2917H82.3958C86.8256 42.2917 90.4167 38.7006 90.4167 34.2708C90.4167 29.841 86.8256 26.25 82.3958 26.25Z" fill="white"/>
<path d="M61.9792 59.7917H34.2708C29.841 59.7917 26.25 63.3827 26.25 67.8125C26.25 72.2423 29.841 75.8333 34.2708 75.8333H61.9792C66.409 75.8333 70 72.2423 70 67.8125C70 63.3827 66.409 59.7917 61.9792 59.7917Z" fill="white"/>
<path d="M75.8333 113.75C75.8333 90.4167 84.5833 67.0833 96.25 49.5833C102.083 39.375 107.917 32.0833 115.208 24.7917" stroke="#10B981" stroke-width="8.75" stroke-linecap="round"/>
<path d="M115.208 33.5417C120.041 33.5417 123.958 29.6242 123.958 24.7917C123.958 19.9592 120.041 16.0417 115.208 16.0417C110.376 16.0417 106.458 19.9592 106.458 24.7917C106.458 29.6242 110.376 33.5417 115.208 33.5417Z" fill="#10B981"/>
</g>
<path d="M175.507 76V37.5324H167V25.5112H175.507V24.7715C175.507 20.7644 176.278 17.3738 177.819 14.5997C179.422 11.8256 181.703 9.69881 184.662 8.21929C187.621 6.73976 191.196 6 195.388 6C196.19 6 197.053 6.06165 197.978 6.18494C198.902 6.24659 199.673 6.33906 200.289 6.46235V18.2985C199.673 18.1753 199.118 18.1136 198.625 18.1136C198.193 18.052 197.731 18.0211 197.238 18.0211C194.649 18.0211 192.676 18.6068 191.32 19.7781C190.025 20.8877 189.378 22.5522 189.378 24.7715V25.5112H200.197V37.5324H189.378V76H175.507Z" fill="#0F172A"/>
<path d="M208.901 75.5377V25.0489H222.771V75.5377H208.901ZM208.901 20.5178V6.64729H222.771V20.5178H208.901Z" fill="#0F172A"/>
<path d="M231.007 74.4742V23.9855H243.953V33.9722L243.213 31.753C244.384 28.7323 246.264 26.513 248.854 25.0951C251.504 23.6156 254.587 22.8758 258.101 22.8758C261.923 22.8758 265.252 23.6772 268.087 25.28C270.985 26.8829 273.235 29.133 274.838 32.0304C276.441 34.8661 277.242 38.1951 277.242 42.0172V74.4742H263.371V44.9762C263.371 43.0035 262.971 41.3082 262.169 39.8903C261.429 38.4725 260.351 37.3628 258.933 36.5614C257.577 35.76 255.974 35.3593 254.124 35.3593C252.337 35.3593 250.734 35.76 249.316 36.5614C247.898 37.3628 246.788 38.4725 245.987 39.8903C245.247 41.3082 244.877 43.0035 244.877 44.9762V74.4742H231.007Z" fill="#4F46E5"/>
<path d="M305.209 75.5839C301.14 75.5839 297.657 74.7208 294.76 72.9947C291.924 71.2069 289.767 68.7411 288.287 65.5971C286.808 62.4531 286.068 58.7851 286.068 54.5931V23.9855H299.938V53.4835C299.938 55.3945 300.308 57.0898 301.048 58.5693C301.849 59.9872 302.959 61.0969 304.377 61.8983C305.795 62.6997 307.398 63.1004 309.185 63.1004C311.035 63.1004 312.638 62.6997 313.994 61.8983C315.412 61.0969 316.49 59.9872 317.23 58.5693C318.032 57.0898 318.432 55.3945 318.432 53.4835V23.9855H332.303V74.4742H319.357V64.4874L320.097 66.7067C318.926 69.7274 317.014 71.9775 314.364 73.4571C311.775 74.8749 308.723 75.5839 305.209 75.5839Z" fill="#4F46E5"/>
<path d="M362.952 75.5839C357.404 75.5839 352.564 74.2893 348.434 71.7001C344.365 69.0493 341.591 65.5046 340.112 61.066L350.283 56.2576C351.578 58.97 353.335 61.0969 355.554 62.638C357.773 64.1792 360.239 64.9498 362.952 64.9498C364.924 64.9498 366.435 64.5491 367.483 63.7477C368.531 62.9463 369.055 61.8366 369.055 60.4187C369.055 59.679 368.87 59.0625 368.5 58.5693C368.13 58.0145 367.575 57.5213 366.836 57.0898C366.096 56.6583 365.171 56.2884 364.061 55.9802L355.462 53.5759C351.331 52.4047 348.156 50.5244 345.937 47.9353C343.718 45.2844 342.608 42.1713 342.608 38.5958C342.608 35.4518 343.41 32.7085 345.013 30.3659C346.615 28.0233 348.865 26.2047 351.763 24.9102C354.66 23.5539 357.989 22.8758 361.75 22.8758C366.681 22.8758 370.997 24.0471 374.695 26.3897C378.456 28.6706 381.107 31.9071 382.648 36.0991L372.384 40.9075C371.644 38.8115 370.288 37.1471 368.315 35.9141C366.404 34.6195 364.216 33.9722 361.75 33.9722C359.962 33.9722 358.544 34.3421 357.496 35.0819C356.51 35.8216 356.016 36.8388 356.016 38.1334C356.016 38.8115 356.201 39.428 356.571 39.9828C356.941 40.5376 357.527 41.0308 358.328 41.4623C359.191 41.8939 360.239 42.2946 361.472 42.6644L369.517 45.0687C373.709 46.3016 376.915 48.1818 379.134 50.7094C381.353 53.1752 382.463 56.2268 382.463 59.8639C382.463 63.0079 381.631 65.7512 379.966 68.0938C378.363 70.4364 376.113 72.2858 373.216 73.642C370.319 74.9366 366.897 75.5839 362.952 75.5839Z" fill="#4F46E5"/>
<path d="M167 125.284V96.0105H177.315C179.25 96.0105 180.95 96.3772 182.414 97.1107C183.878 97.8442 185.016 98.892 185.826 100.254C186.663 101.616 187.082 103.214 187.082 105.048C187.082 106.881 186.663 108.479 185.826 109.842C185.016 111.178 183.878 112.225 182.414 112.985C180.976 113.718 179.276 114.085 177.315 114.085H170.844V125.284H167ZM170.844 110.549H177.433C178.61 110.549 179.629 110.326 180.492 109.881C181.355 109.436 182.022 108.794 182.493 107.956C182.963 107.117 183.199 106.148 183.199 105.048C183.199 103.921 182.963 102.952 182.493 102.14C182.022 101.302 181.355 100.66 180.492 100.215C179.629 99.7695 178.61 99.5469 177.433 99.5469H170.844V110.549Z" fill="#94A3B8"/>
<path d="M192.155 125.284V95.539H195.802V125.284H192.155Z" fill="#94A3B8"/>
<path d="M207.966 125.755C206.58 125.755 205.351 125.506 204.279 125.009C203.233 124.485 202.409 123.777 201.808 122.887C201.206 121.97 200.906 120.922 200.906 119.743C200.906 118.617 201.141 117.608 201.612 116.718C202.109 115.801 202.867 115.028 203.887 114.4C204.932 113.771 206.24 113.326 207.809 113.064L215.653 111.767V114.832L208.632 116.011C207.273 116.246 206.279 116.678 205.652 117.307C205.05 117.936 204.749 118.709 204.749 119.625C204.749 120.49 205.089 121.21 205.769 121.787C206.475 122.363 207.351 122.651 208.397 122.651C209.731 122.651 210.881 122.376 211.849 121.826C212.842 121.25 213.614 120.477 214.163 119.508C214.738 118.538 215.026 117.464 215.026 116.286V110.902C215.026 109.75 214.594 108.82 213.731 108.113C212.895 107.379 211.783 107.012 210.397 107.012C209.195 107.012 208.123 107.327 207.181 107.956C206.266 108.558 205.586 109.37 205.142 110.392L201.965 108.741C202.357 107.772 202.984 106.908 203.847 106.148C204.71 105.362 205.717 104.747 206.867 104.301C208.018 103.856 209.221 103.633 210.476 103.633C212.097 103.633 213.522 103.948 214.751 104.576C215.98 105.179 216.934 106.03 217.614 107.13C218.32 108.204 218.673 109.462 218.673 110.902V125.284H215.104V121.276L215.771 121.511C215.326 122.35 214.725 123.083 213.967 123.712C213.208 124.341 212.319 124.838 211.299 125.205C210.28 125.572 209.168 125.755 207.966 125.755Z" fill="#94A3B8"/>
<path d="M224.635 125.284V104.105H228.204V108.231L227.616 107.877C228.139 106.541 228.976 105.506 230.126 104.773C231.303 104.013 232.676 103.633 234.245 103.633C235.761 103.633 237.108 103.974 238.284 104.655C239.487 105.336 240.429 106.279 241.108 107.484C241.814 108.689 242.167 110.051 242.167 111.57V125.284H238.481V112.749C238.481 111.57 238.271 110.575 237.853 109.763C237.435 108.951 236.833 108.322 236.049 107.877C235.29 107.405 234.415 107.17 233.421 107.17C232.427 107.17 231.538 107.405 230.754 107.877C229.996 108.322 229.394 108.964 228.95 109.802C228.505 110.614 228.283 111.597 228.283 112.749V125.284H224.635Z" fill="#94A3B8"/>
<path d="M247.693 125.284V104.105H251.341V125.284H247.693ZM247.693 100.726V96.0105H251.341V100.726H247.693Z" fill="#94A3B8"/>
<path d="M259.543 125.284V107.602H255.503V104.105H259.543V102.612C259.543 101.092 259.87 99.8088 260.523 98.761C261.203 97.7132 262.092 96.9142 263.191 96.3641C264.315 95.814 265.557 95.539 266.917 95.539C267.204 95.539 267.518 95.5652 267.858 95.6176C268.224 95.6438 268.525 95.6831 268.76 95.7355V98.9968C268.551 98.9444 268.302 98.9182 268.015 98.9182C267.727 98.892 267.505 98.8789 267.348 98.8789C266.145 98.8789 265.152 99.167 264.367 99.7433C263.609 100.32 263.23 101.276 263.23 102.612V104.105H274.212V107.602H263.23V125.284H259.543ZM271.937 125.284V104.105H275.624V125.284H271.937Z" fill="#94A3B8"/>
<path d="M290.784 125.755C288.718 125.755 286.875 125.27 285.253 124.301C283.658 123.332 282.403 122.009 281.488 120.333C280.573 118.656 280.115 116.77 280.115 114.675C280.115 112.553 280.573 110.667 281.488 109.016C282.403 107.366 283.658 106.056 285.253 105.087C286.875 104.118 288.718 103.633 290.784 103.633C292.17 103.633 293.464 103.882 294.667 104.38C295.869 104.878 296.928 105.546 297.844 106.384C298.759 107.222 299.426 108.204 299.844 109.331L296.589 110.902C296.092 109.802 295.333 108.912 294.314 108.231C293.294 107.523 292.117 107.17 290.784 107.17C289.502 107.17 288.339 107.497 287.293 108.152C286.273 108.807 285.463 109.697 284.861 110.824C284.26 111.95 283.959 113.247 283.959 114.714C283.959 116.128 284.26 117.412 284.861 118.565C285.463 119.691 286.273 120.582 287.293 121.236C288.339 121.891 289.502 122.219 290.784 122.219C292.117 122.219 293.294 121.878 294.314 121.197C295.333 120.49 296.092 119.56 296.589 118.407L299.844 120.058C299.426 121.158 298.759 122.14 297.844 123.005C296.928 123.843 295.869 124.511 294.667 125.009C293.464 125.506 292.17 125.755 290.784 125.755Z" fill="#94A3B8"/>
<path d="M310.846 125.755C309.46 125.755 308.231 125.506 307.159 125.009C306.113 124.485 305.29 123.777 304.688 122.887C304.087 121.97 303.786 120.922 303.786 119.743C303.786 118.617 304.022 117.608 304.492 116.718C304.989 115.801 305.747 115.028 306.767 114.4C307.813 113.771 309.121 113.326 310.689 113.064L318.534 111.767V114.832L311.513 116.011C310.153 116.246 309.16 116.678 308.532 117.307C307.931 117.936 307.63 118.709 307.63 119.625C307.63 120.49 307.97 121.21 308.65 121.787C309.356 122.363 310.232 122.651 311.278 122.651C312.611 122.651 313.762 122.376 314.729 121.826C315.723 121.25 316.494 120.477 317.043 119.508C317.619 118.538 317.906 117.464 317.906 116.286V110.902C317.906 109.75 317.475 108.82 316.612 108.113C315.775 107.379 314.664 107.012 313.278 107.012C312.075 107.012 311.003 107.327 310.062 107.956C309.147 108.558 308.467 109.37 308.022 110.392L304.845 108.741C305.238 107.772 305.865 106.908 306.728 106.148C307.591 105.362 308.598 104.747 309.748 104.301C310.899 103.856 312.101 103.633 313.356 103.633C314.978 103.633 316.403 103.948 317.632 104.576C318.861 105.179 319.815 106.03 320.495 107.13C321.201 108.204 321.554 109.462 321.554 110.902V125.284H317.985V121.276L318.651 121.511C318.207 122.35 317.605 123.083 316.847 123.712C316.089 124.341 315.2 124.838 314.18 125.205C313.16 125.572 312.049 125.755 310.846 125.755Z" fill="#94A3B8"/>
<path d="M337.321 125.755C335.256 125.755 333.412 125.27 331.791 124.301C330.196 123.332 328.941 122.009 328.026 120.333C327.111 118.656 326.653 116.77 326.653 114.675C326.653 112.553 327.111 110.667 328.026 109.016C328.941 107.366 330.196 106.056 331.791 105.087C333.412 104.118 335.256 103.633 337.321 103.633C338.707 103.633 340.001 103.882 341.204 104.38C342.407 104.878 343.466 105.546 344.381 106.384C345.296 107.222 345.963 108.204 346.382 109.331L343.126 110.902C342.629 109.802 341.871 108.912 340.851 108.231C339.831 107.523 338.655 107.17 337.321 107.17C336.04 107.17 334.876 107.497 333.831 108.152C332.811 108.807 332 109.697 331.399 110.824C330.797 111.95 330.497 113.247 330.497 114.714C330.497 116.128 330.797 117.412 331.399 118.565C332 119.691 332.811 120.582 333.831 121.236C334.876 121.891 336.04 122.219 337.321 122.219C338.655 122.219 339.831 121.878 340.851 121.197C341.871 120.49 342.629 119.56 343.126 118.407L346.382 120.058C345.963 121.158 345.296 122.14 344.381 123.005C343.466 123.843 342.407 124.511 341.204 125.009C340.001 125.506 338.707 125.755 337.321 125.755Z" fill="#94A3B8"/>
<path d="M351.455 125.284V104.105H355.103V125.284H351.455ZM351.455 100.726V96.0105H355.103V100.726H351.455Z" fill="#94A3B8"/>
<path d="M371.11 125.755C369.07 125.755 367.227 125.284 365.579 124.341C363.932 123.371 362.625 122.048 361.657 120.372C360.69 118.696 360.206 116.796 360.206 114.675C360.206 112.553 360.677 110.667 361.618 109.016C362.585 107.366 363.893 106.056 365.54 105.087C367.187 104.118 369.044 103.633 371.11 103.633C373.149 103.633 374.993 104.118 376.64 105.087C378.287 106.03 379.582 107.327 380.523 108.977C381.49 110.627 381.974 112.527 381.974 114.675C381.974 116.823 381.477 118.735 380.484 120.411C379.49 122.062 378.17 123.371 376.522 124.341C374.901 125.284 373.097 125.755 371.11 125.755ZM371.11 122.219C372.417 122.219 373.594 121.891 374.64 121.236C375.712 120.582 376.548 119.678 377.15 118.525C377.777 117.373 378.091 116.089 378.091 114.675C378.091 113.234 377.777 111.963 377.15 110.863C376.548 109.737 375.712 108.846 374.64 108.191C373.594 107.51 372.417 107.17 371.11 107.17C369.776 107.17 368.573 107.51 367.501 108.191C366.455 108.846 365.619 109.737 364.991 110.863C364.364 111.963 364.05 113.234 364.05 114.675C364.05 116.089 364.364 117.373 364.991 118.525C365.619 119.678 366.455 120.582 367.501 121.236C368.573 121.891 369.776 122.219 371.11 122.219ZM369.266 100.136L372.365 93.928H377.307L372.914 100.136H369.266Z" fill="#94A3B8"/>
<path d="M387.038 125.284V104.105H390.607V108.231L390.019 107.877C390.542 106.541 391.379 105.506 392.529 104.773C393.706 104.013 395.078 103.633 396.647 103.633C398.164 103.633 399.511 103.974 400.687 104.655C401.89 105.336 402.831 106.279 403.511 107.484C404.217 108.689 404.57 110.051 404.57 111.57V125.284H400.883V112.749C400.883 111.57 400.674 110.575 400.256 109.763C399.837 108.951 399.236 108.322 398.452 107.877C397.693 107.405 396.817 107.17 395.824 107.17C394.83 107.17 393.941 107.405 393.157 107.877C392.398 108.322 391.797 108.964 391.352 109.802C390.908 110.614 390.686 111.597 390.686 112.749V125.284H387.038Z" fill="#94A3B8"/>
<path d="M417.182 125.284V104.105H420.83V125.284H417.182ZM417.182 100.726V96.0105H420.83V100.726H417.182Z" fill="#94A3B8"/>
<path d="M426.796 125.284V104.105H430.365V108.231L429.777 107.877C430.3 106.541 431.137 105.506 432.287 104.773C433.464 104.013 434.836 103.633 436.405 103.633C437.922 103.633 439.269 103.974 440.445 104.655C441.648 105.336 442.589 106.279 443.269 107.484C443.975 108.689 444.328 110.051 444.328 111.57V125.284H440.641V112.749C440.641 111.57 440.432 110.575 440.014 109.763C439.595 108.951 438.994 108.322 438.21 107.877C437.451 107.405 436.575 107.17 435.582 107.17C434.588 107.17 433.699 107.405 432.915 107.877C432.156 108.322 431.555 108.964 431.11 109.802C430.666 110.614 430.444 111.597 430.444 112.749V125.284H426.796Z" fill="#94A3B8"/>
<path d="M458.444 125.519C456.378 125.519 454.783 124.93 453.659 123.751C452.56 122.572 452.011 120.909 452.011 118.761V107.602H448.168V104.105H448.952C449.893 104.105 450.639 103.817 451.188 103.24C451.737 102.664 452.011 101.904 452.011 100.961V99.2325H455.659V104.105H460.405V107.602H455.659V118.643C455.659 119.35 455.764 119.966 455.973 120.49C456.208 121.014 456.587 121.433 457.11 121.747C457.633 122.035 458.326 122.179 459.189 122.179C459.372 122.179 459.594 122.166 459.856 122.14C460.143 122.114 460.405 122.088 460.64 122.062V125.284C460.3 125.362 459.921 125.415 459.503 125.441C459.084 125.493 458.731 125.519 458.444 125.519Z" fill="#94A3B8"/>
<path d="M474.864 125.755C472.824 125.755 471.007 125.27 469.412 124.301C467.817 123.332 466.562 122.009 465.647 120.333C464.732 118.63 464.274 116.731 464.274 114.635C464.274 112.513 464.718 110.627 465.608 108.977C466.523 107.327 467.752 106.03 469.294 105.087C470.863 104.118 472.615 103.633 474.55 103.633C476.119 103.633 477.505 103.921 478.708 104.498C479.937 105.048 480.969 105.807 481.806 106.777C482.669 107.72 483.323 108.807 483.767 110.038C484.238 111.243 484.473 112.5 484.473 113.81C484.473 114.098 484.447 114.426 484.395 114.792C484.369 115.133 484.329 115.46 484.277 115.775H466.941V112.631H482.159L480.433 114.046C480.669 112.684 480.538 111.466 480.041 110.392C479.544 109.318 478.812 108.466 477.845 107.838C476.877 107.209 475.779 106.895 474.55 106.895C473.321 106.895 472.197 107.209 471.177 107.838C470.157 108.466 469.36 109.37 468.784 110.549C468.235 111.701 468.013 113.077 468.118 114.675C468.013 116.22 468.248 117.582 468.824 118.761C469.425 119.914 470.262 120.817 471.334 121.472C472.432 122.101 473.622 122.415 474.903 122.415C476.315 122.415 477.505 122.088 478.472 121.433C479.44 120.778 480.224 119.94 480.826 118.918L483.885 120.49C483.467 121.459 482.813 122.35 481.924 123.162C481.061 123.948 480.028 124.576 478.825 125.048C477.649 125.519 476.328 125.755 474.864 125.755Z" fill="#94A3B8"/>
<path d="M489.536 125.284V95.539H493.183V125.284H489.536Z" fill="#94A3B8"/>
<path d="M499.15 125.284V104.105H502.797V125.284H499.15ZM499.15 100.726V96.0105H502.797V100.726H499.15Z" fill="#94A3B8"/>
<path d="M518.843 133.928C517.353 133.928 515.967 133.692 514.686 133.221C513.431 132.749 512.346 132.094 511.431 131.256C510.542 130.444 509.862 129.488 509.391 128.388L512.803 126.816C513.169 127.811 513.862 128.65 514.882 129.331C515.928 130.038 517.235 130.392 518.804 130.392C520.007 130.392 521.092 130.156 522.06 129.684C523.053 129.239 523.838 128.558 524.413 127.641C524.988 126.751 525.276 125.663 525.276 124.38V119.625L525.943 120.333C525.21 121.773 524.151 122.874 522.766 123.633C521.406 124.393 519.902 124.773 518.255 124.773C516.268 124.773 514.49 124.314 512.921 123.398C511.352 122.455 510.123 121.184 509.234 119.586C508.345 117.962 507.901 116.168 507.901 114.203C507.901 112.212 508.345 110.418 509.234 108.82C510.123 107.222 511.339 105.965 512.882 105.048C514.451 104.105 516.229 103.633 518.216 103.633C519.863 103.633 521.354 104.013 522.687 104.773C524.047 105.506 525.132 106.528 525.943 107.838L525.394 108.82V104.105H528.963V124.38C528.963 126.214 528.531 127.851 527.668 129.291C526.805 130.732 525.603 131.859 524.06 132.671C522.543 133.509 520.805 133.928 518.843 133.928ZM518.569 121.236C519.824 121.236 520.948 120.922 521.942 120.293C522.962 119.665 523.772 118.826 524.374 117.779C524.975 116.705 525.276 115.513 525.276 114.203C525.276 112.919 524.975 111.741 524.374 110.667C523.772 109.593 522.962 108.741 521.942 108.113C520.948 107.484 519.824 107.17 518.569 107.17C517.288 107.17 516.124 107.484 515.078 108.113C514.032 108.741 513.209 109.593 512.607 110.667C512.032 111.715 511.744 112.893 511.744 114.203C511.744 115.513 512.032 116.705 512.607 117.779C513.209 118.826 514.019 119.665 515.039 120.293C516.085 120.922 517.262 121.236 518.569 121.236Z" fill="#94A3B8"/>
<path d="M544.651 125.755C542.612 125.755 540.794 125.27 539.199 124.301C537.604 123.332 536.349 122.009 535.434 120.333C534.519 118.63 534.061 116.731 534.061 114.635C534.061 112.513 534.506 110.627 535.395 108.977C536.31 107.327 537.539 106.03 539.082 105.087C540.65 104.118 542.402 103.633 544.337 103.633C545.906 103.633 547.292 103.921 548.495 104.498C549.724 105.048 550.757 105.807 551.593 106.777C552.456 107.72 553.11 108.807 553.554 110.038C554.025 111.243 554.26 112.5 554.26 113.81C554.26 114.098 554.234 114.426 554.182 114.792C554.156 115.133 554.117 115.46 554.064 115.775H536.728V112.631H551.946L550.221 114.046C550.456 112.684 550.325 111.466 549.828 110.392C549.332 109.318 548.599 108.466 547.632 107.838C546.664 107.209 545.566 106.895 544.337 106.895C543.108 106.895 541.984 107.209 540.964 107.838C539.944 108.466 539.147 109.37 538.572 110.549C538.023 111.701 537.8 113.077 537.905 114.675C537.8 116.22 538.036 117.582 538.611 118.761C539.212 119.914 540.049 120.817 541.121 121.472C542.219 122.101 543.409 122.415 544.69 122.415C546.102 122.415 547.292 122.088 548.26 121.433C549.227 120.778 550.011 119.94 550.613 118.918L553.672 120.49C553.254 121.459 552.6 122.35 551.711 123.162C550.848 123.948 549.815 124.576 548.613 125.048C547.436 125.519 546.115 125.755 544.651 125.755Z" fill="#94A3B8"/>
<path d="M559.323 125.284V104.105H562.892V108.231L562.304 107.877C562.827 106.541 563.663 105.506 564.814 104.773C565.991 104.013 567.363 103.633 568.932 103.633C570.449 103.633 571.795 103.974 572.972 104.655C574.175 105.336 575.116 106.279 575.796 107.484C576.502 108.689 576.855 110.051 576.855 111.57V125.284H573.168V112.749C573.168 111.57 572.959 110.575 572.541 109.763C572.122 108.951 571.521 108.322 570.736 107.877C569.978 107.405 569.102 107.17 568.109 107.17C567.115 107.17 566.226 107.405 565.441 107.877C564.683 108.322 564.082 108.964 563.637 109.802C563.193 110.614 562.97 111.597 562.97 112.749V125.284H559.323Z" fill="#94A3B8"/>
<path d="M590.971 125.519C588.905 125.519 587.31 124.93 586.185 123.751C585.087 122.572 584.538 120.909 584.538 118.761V107.602H580.694V104.105H581.479C582.42 104.105 583.165 103.817 583.714 103.24C584.264 102.664 584.538 101.904 584.538 100.961V99.2325H588.186V104.105H592.932V107.602H588.186V118.643C588.186 119.35 588.29 119.966 588.5 120.49C588.735 121.014 589.114 121.433 589.637 121.747C590.16 122.035 590.853 122.179 591.716 122.179C591.899 122.179 592.121 122.166 592.383 122.14C592.67 122.114 592.932 122.088 593.167 122.062V125.284C592.827 125.362 592.448 125.415 592.029 125.441C591.611 125.493 591.258 125.519 590.971 125.519Z" fill="#94A3B8"/>
<path d="M607.391 125.755C605.351 125.755 603.534 125.27 601.939 124.301C600.344 123.332 599.089 122.009 598.174 120.333C597.258 118.63 596.801 116.731 596.801 114.635C596.801 112.513 597.245 110.627 598.134 108.977C599.05 107.327 600.278 106.03 601.821 105.087C603.39 104.118 605.142 103.633 607.077 103.633C608.646 103.633 610.032 103.921 611.234 104.498C612.463 105.048 613.496 105.807 614.333 106.777C615.196 107.72 615.849 108.807 616.294 110.038C616.765 111.243 617 112.5 617 113.81C617 114.098 616.974 114.426 616.922 114.792C616.895 115.133 616.856 115.46 616.804 115.775H599.468V112.631H614.686L612.96 114.046C613.195 112.684 613.065 111.466 612.568 110.392C612.071 109.318 611.339 108.466 610.372 107.838C609.404 107.209 608.306 106.895 607.077 106.895C605.848 106.895 604.724 107.209 603.704 107.838C602.684 108.466 601.887 109.37 601.311 110.549C600.762 111.701 600.54 113.077 600.644 114.675C600.54 116.22 600.775 117.582 601.351 118.761C601.952 119.914 602.789 120.817 603.861 121.472C604.959 122.101 606.149 122.415 607.43 122.415C608.842 122.415 610.032 122.088 610.999 121.433C611.967 120.778 612.751 119.94 613.352 118.918L616.412 120.49C615.993 121.459 615.34 122.35 614.451 123.162C613.588 123.948 612.555 124.576 611.352 125.048C610.175 125.519 608.855 125.755 607.391 125.755Z" fill="#94A3B8"/>
<defs>
<clipPath id="clip0_1_31">
<rect width="140" height="140" fill="white"/>
</clipPath>
</defs>
</svg>
