<svg width="383" height="140" viewBox="0 0 383 140" fill="none" xmlns="http://www.w3.org/2000/svg">
<g clip-path="url(#clip0_2_2)">
<path d="M107.917 0H32.0833C14.3642 0 0 14.3642 0 32.0833V107.917C0 125.636 14.3642 140 32.0833 140H107.917C125.636 140 140 125.636 140 107.917V32.0833C140 14.3642 125.636 0 107.917 0Z" fill="#4F46E5"/>
<path d="M42.2917 34.2708C42.2917 29.841 38.7006 26.25 34.2708 26.25C29.841 26.25 26.25 29.841 26.25 34.2708V102.812C26.25 107.242 29.841 110.833 34.2708 110.833C38.7006 110.833 42.2917 107.242 42.2917 102.812V34.2708Z" fill="white"/>
<path d="M82.3958 26.25H34.2708C29.841 26.25 26.25 29.841 26.25 34.2708C26.25 38.7006 29.841 42.2917 34.2708 42.2917H82.3958C86.8256 42.2917 90.4167 38.7006 90.4167 34.2708C90.4167 29.841 86.8256 26.25 82.3958 26.25Z" fill="white"/>
<path d="M61.9792 59.7917H34.2708C29.841 59.7917 26.25 63.3827 26.25 67.8125C26.25 72.2423 29.841 75.8333 34.2708 75.8333H61.9792C66.409 75.8333 70 72.2423 70 67.8125C70 63.3827 66.409 59.7917 61.9792 59.7917Z" fill="white"/>
<path d="M75.8333 113.75C75.8333 90.4167 84.5833 67.0833 96.25 49.5833C102.083 39.375 107.917 32.0833 115.208 24.7917" stroke="#10B981" stroke-width="8.75" stroke-linecap="round"/>
<path d="M115.208 33.5417C120.041 33.5417 123.958 29.6242 123.958 24.7917C123.958 19.9592 120.041 16.0417 115.208 16.0417C110.376 16.0417 106.458 19.9592 106.458 24.7917C106.458 29.6242 110.376 33.5417 115.208 33.5417Z" fill="#10B981"/>
</g>
<path d="M175.507 105V66.5324H167V54.5112H175.507V53.7715C175.507 49.7644 176.278 46.3738 177.819 43.5997C179.422 40.8256 181.703 38.6988 184.662 37.2193C187.621 35.7398 191.196 35 195.388 35C196.19 35 197.053 35.0616 197.978 35.1849C198.902 35.2466 199.673 35.3391 200.289 35.4624V47.2985C199.673 47.1753 199.118 47.1136 198.625 47.1136C198.193 47.052 197.731 47.0211 197.238 47.0211C194.649 47.0211 192.676 47.6068 191.32 48.7781C190.025 49.8877 189.378 51.5522 189.378 53.7715V54.5112H200.197V66.5324H189.378V105H175.507Z" fill="#0F172A"/>
<path d="M208.901 104.538V54.0489H222.771V104.538H208.901ZM208.901 49.5178V35.6473H222.771V49.5178H208.901Z" fill="#0F172A"/>
<path d="M231.007 103.474V52.9855H243.953V62.9723L243.213 60.753C244.384 57.7323 246.264 55.513 248.854 54.0951C251.504 52.6156 254.587 51.8758 258.101 51.8758C261.923 51.8758 265.252 52.6772 268.087 54.2801C270.985 55.8829 273.235 58.133 274.838 61.0304C276.441 63.8661 277.242 67.1951 277.242 71.0172V103.474H263.371V73.9762C263.371 72.0035 262.971 70.3082 262.169 68.8904C261.429 67.4725 260.351 66.3628 258.933 65.5614C257.577 64.76 255.974 64.3593 254.124 64.3593C252.337 64.3593 250.734 64.76 249.316 65.5614C247.898 66.3628 246.788 67.4725 245.987 68.8904C245.247 70.3082 244.877 72.0035 244.877 73.9762V103.474H231.007Z" fill="#4F46E5"/>
<path d="M305.209 104.584C301.14 104.584 297.657 103.721 294.76 101.995C291.924 100.207 289.767 97.7411 288.287 94.5971C286.808 91.4531 286.068 87.7851 286.068 83.5931V52.9855H299.938V82.4835C299.938 84.3945 300.308 86.0898 301.048 87.5694C301.849 88.9872 302.959 90.0969 304.377 90.8983C305.795 91.6997 307.398 92.1004 309.185 92.1004C311.035 92.1004 312.638 91.6997 313.994 90.8983C315.412 90.0969 316.49 88.9872 317.23 87.5694C318.032 86.0898 318.432 84.3945 318.432 82.4835V52.9855H332.303V103.474H319.357V93.4874L320.097 95.7067C318.926 98.7274 317.014 100.978 314.364 102.457C311.775 103.875 308.723 104.584 305.209 104.584Z" fill="#4F46E5"/>
<path d="M362.952 104.584C357.404 104.584 352.564 103.289 348.434 100.7C344.365 98.0493 341.591 94.5046 340.112 90.066L350.283 85.2576C351.578 87.9701 353.335 90.0969 355.554 91.638C357.773 93.1792 360.239 93.9498 362.952 93.9498C364.924 93.9498 366.435 93.5491 367.483 92.7477C368.531 91.9463 369.055 90.8366 369.055 89.4188C369.055 88.679 368.87 88.0625 368.5 87.5694C368.13 87.0145 367.575 86.5214 366.836 86.0898C366.096 85.6583 365.171 85.2884 364.061 84.9802L355.462 82.576C351.331 81.4047 348.156 79.5244 345.937 76.9353C343.718 74.2845 342.608 71.1713 342.608 67.5958C342.608 64.4518 343.41 61.7085 345.013 59.3659C346.615 57.0233 348.865 55.2048 351.763 53.9102C354.66 52.5539 357.989 51.8758 361.75 51.8758C366.681 51.8758 370.997 53.0471 374.695 55.3897C378.456 57.6706 381.107 60.9071 382.648 65.0991L372.384 69.9075C371.644 67.8115 370.288 66.1471 368.315 64.9141C366.404 63.6195 364.216 62.9723 361.75 62.9723C359.962 62.9723 358.544 63.3421 357.496 64.0819C356.51 64.8217 356.016 65.8388 356.016 67.1334C356.016 67.8115 356.201 68.428 356.571 68.9828C356.941 69.5376 357.527 70.0308 358.328 70.4623C359.191 70.8939 360.239 71.2946 361.472 71.6645L369.517 74.0687C373.709 75.3016 376.915 77.1819 379.134 79.7094C381.353 82.1753 382.463 85.2268 382.463 88.8639C382.463 92.0079 381.631 94.7512 379.966 97.0938C378.363 99.4364 376.113 101.286 373.216 102.642C370.319 103.937 366.897 104.584 362.952 104.584Z" fill="#4F46E5"/>
<defs>
<clipPath id="clip0_2_2">
<rect width="140" height="140" fill="white"/>
</clipPath>
</defs>
</svg>
